<svg xmlns="http://www.w3.org/2000/svg" viewBox="0 0 64 64" role="img" aria-label="AI Design">
  <defs>
    <filter id="mark-glow" x="-30%" y="-30%" width="160%" height="160%">
      <feGaussianBlur stdDeviation="1.5"/>
    </filter>
    <g id="mark" fill="none" stroke="#f7f7f5" stroke-linecap="round" stroke-linejoin="round">
      <path d="M8 50.5V19C8 12.4 13.4 7 20 7h24c6.6 0 12 5.4 12 12v31.5" stroke-width="3"/>
      <rect x="25" y="22" width="14" height="28" rx="5" stroke-width="4"/>
      <path d="M20.5 31H20c-1.7 0-3 1.3-3 3v13.25c0 1.7 1.3 3 3 3h.5M43.5 31h.5c1.7 0 3 1.3 3 3v13.25c0 1.7-1.3 3-3 3h-.5" stroke-width="3.5"/>
      <path d="M13.5 40H13c-1.4 0-2.5 1.1-2.5 2.5V48c0 1.4 1.1 2.5 2.5 2.5h.5M50.5 40h.5c1.4 0 2.5 1.1 2.5 2.5V48c0 1.4-1.1 2.5-2.5 2.5h-.5" stroke-width="3"/>
    </g>
  </defs>
  <rect width="64" height="64" rx="14" fill="#08090b"/>
  <rect x="0.75" y="0.75" width="62.5" height="62.5" rx="13.25" fill="none" stroke="#2b2d31" stroke-width="1.5"/>
  <use href="#mark" opacity="0.42" filter="url(#mark-glow)"/>
  <use href="#mark"/>
</svg>
