<svg xmlns="http://www.w3.org/2000/svg" viewBox="0 0 640 400" role="img" aria-label="图片占位">
  <defs>
    <linearGradient id="sky" x1="0" y1="0" x2="0" y2="1">
      <stop offset="0" stop-color="#25282f" />
      <stop offset="1" stop-color="#131418" />
    </linearGradient>
    <linearGradient id="hill-far" x1="0" y1="0" x2="0" y2="1">
      <stop offset="0" stop-color="#3c414b" />
      <stop offset="1" stop-color="#22252b" />
    </linearGradient>
    <linearGradient id="hill-near" x1="0" y1="0" x2="0" y2="1">
      <stop offset="0" stop-color="#22252b" />
      <stop offset="1" stop-color="#16181d" />
    </linearGradient>
  </defs>

  <rect x="-6" y="-6" width="652" height="412" fill="url(#sky)" />

  <circle cx="140" cy="80" r="2.5" fill="#a9b3c1" fill-opacity="0.3" />
  <circle cx="230" cy="140" r="2" fill="#a9b3c1" fill-opacity="0.22" />
  <circle cx="330" cy="70" r="2" fill="#a9b3c1" fill-opacity="0.26" />
  <circle cx="580" cy="60" r="2.5" fill="#a9b3c1" fill-opacity="0.2" />
  <circle cx="60" cy="180" r="2" fill="#a9b3c1" fill-opacity="0.18" />

  <circle cx="460" cy="118" r="66" fill="#e6eaf0" fill-opacity="0.1" />
  <circle cx="460" cy="118" r="44" fill="#dfe4ea" fill-opacity="0.88" />

  <path
    d="M-6 274C90 208 160 214 240 250C320 286 390 230 470 252C540 270 596 252 646 262V406H-6Z"
    fill="url(#hill-far)"
    fill-opacity="0.95"
  />
  <path
    d="M-6 336C80 300 170 340 260 324C350 308 430 344 520 328C572 318 612 328 646 322V406H-6Z"
    fill="url(#hill-near)"
  />
</svg>
